<?xml version="1.0" encoding="utf-8" ?>
<svg baseProfile="full" height="800px" version="1.1" width="600px" xmlns="http://www.w3.org/2000/svg" xmlns:ev="http://www.w3.org/2001/xml-events" xmlns:xlink="http://www.w3.org/1999/xlink"><defs /><rect fill="#f9fafb" height="100%" width="100%" x="0" y="0" /><text fill="#111827" font-family="Tahoma" font-size="28px" text-anchor="middle" x="300" y="60">لیست کارها</text><rect fill="#ffffff" height="50" rx="8" ry="8" stroke="#d1d5db" width="500" x="50" y="100" /><text fill="#9ca3af" font-family="Tahoma" font-size="16px" x="70" y="130">تسک جدید را وارد کنید...</text><rect fill="#3b82f6" height="40" rx="8" ry="8" width="90" x="450" y="105" /><text fill="#ffffff" font-family="Tahoma" font-size="16px" text-anchor="middle" x="495" y="132">افزودن</text><rect fill="#ffffff" height="50" rx="8" ry="8" stroke="#e5e7eb" width="500" x="50" y="200" /><circle cx="75" cy="225" fill="none" r="10" stroke="#9ca3af" /><text fill="#111827" font-family="Tahoma" font-size="16px" x="100" y="232">طراحی صفحه ورود</text><rect fill="#ffffff" height="50" rx="8" ry="8" stroke="#e5e7eb" width="500" x="50" y="270" /><circle cx="75" cy="295" fill="none" r="10" stroke="#9ca3af" /><text fill="#111827" font-family="Tahoma" font-size="16px" x="100" y="302">پیاده‌سازی جستجو</text><rect fill="#ffffff" height="50" rx="8" ry="8" stroke="#e5e7eb" width="500" x="50" y="340" /><circle cx="75" cy="365" fill="none" r="10" stroke="#9ca3af" /><text fill="#111827" font-family="Tahoma" font-size="16px" x="100" y="372">طراحی وایرفریم</text><rect fill="#ffffff" height="50" rx="8" ry="8" stroke="#e5e7eb" width="500" x="50" y="410" /><circle cx="75" cy="435" fill="none" r="10" stroke="#9ca3af" /><text fill="#111827" font-family="Tahoma" font-size="16px" x="100" y="442">تنظیم اعلان‌ها</text><rect fill="#e5e7eb" height="40" rx="20" ry="20" width="100" x="150" y="600" /><text fill="#374151" font-family="Tahoma" font-size="14px" text-anchor="middle" x="200" y="626">همه</text><rect fill="#e5e7eb" height="40" rx="20" ry="20" width="100" x="270" y="600" /><text fill="#374151" font-family="Tahoma" font-size="14px" text-anchor="middle" x="320" y="626">فعال</text><rect fill="#e5e7eb" height="40" rx="20" ry="20" width="100" x="390" y="600" /><text fill="#374151" font-family="Tahoma" font-size="14px" text-anchor="middle" x="440" y="626">تکمیل‌شده</text></svg>